<mxfile host="app.diagrams.net" modified="2023-12-13T19:43:25.564Z" agent="Mozilla/5.0 (Windows NT 10.0; Win64; x64) AppleWebKit/537.36 (KHTML, like Gecko) Chrome/118.0.0.0 Safari/537.36 OPR/104.0.0.0" etag="NHfSmFlZ9iGffUOIWUME" version="22.1.8" type="google">
  <diagram id="C5RBs43oDa-KdzZeNtuy" name="Page-1">
    <mxGraphModel grid="1" page="1" gridSize="10" guides="1" tooltips="1" connect="1" arrows="1" fold="1" pageScale="1" pageWidth="827" pageHeight="1169" math="0" shadow="0">
      <root>
        <mxCell id="WIyWlLk6GJQsqaUBKTNV-0" />
        <mxCell id="WIyWlLk6GJQsqaUBKTNV-1" parent="WIyWlLk6GJQsqaUBKTNV-0" />
        <mxCell id="zkfFHV4jXpPFQw0GAbJ--0" value="client" style="swimlane;fontStyle=2;align=center;verticalAlign=top;childLayout=stackLayout;horizontal=1;startSize=26;horizontalStack=0;resizeParent=1;resizeLast=0;collapsible=1;marginBottom=0;rounded=0;shadow=0;strokeWidth=1;" vertex="1" parent="WIyWlLk6GJQsqaUBKTNV-1">
          <mxGeometry x="1700" y="291" width="180" height="186" as="geometry">
            <mxRectangle x="1750" y="324" width="160" height="26" as="alternateBounds" />
          </mxGeometry>
        </mxCell>
        <mxCell id="zkfFHV4jXpPFQw0GAbJ--1" value="id_client : int&#xa;" style="text;align=left;verticalAlign=top;spacingLeft=4;spacingRight=4;overflow=hidden;rotatable=0;points=[[0,0.5],[1,0.5]];portConstraint=eastwest;fontStyle=4" vertex="1" parent="zkfFHV4jXpPFQw0GAbJ--0">
          <mxGeometry y="26" width="180" height="26" as="geometry" />
        </mxCell>
        <mxCell id="zkfFHV4jXpPFQw0GAbJ--4" value="" style="line;html=1;strokeWidth=1;align=left;verticalAlign=middle;spacingTop=-1;spacingLeft=3;spacingRight=3;rotatable=0;labelPosition=right;points=[];portConstraint=eastwest;" vertex="1" parent="zkfFHV4jXpPFQw0GAbJ--0">
          <mxGeometry y="52" width="180" height="8" as="geometry" />
        </mxCell>
        <mxCell id="zkfFHV4jXpPFQw0GAbJ--5" value="Nom_client: varchar" style="text;align=left;verticalAlign=top;spacingLeft=4;spacingRight=4;overflow=hidden;rotatable=0;points=[[0,0.5],[1,0.5]];portConstraint=eastwest;" vertex="1" parent="zkfFHV4jXpPFQw0GAbJ--0">
          <mxGeometry y="60" width="180" height="30" as="geometry" />
        </mxCell>
        <mxCell id="H-YiaezZ2ItrOvKAf6ly-0" value="Prenom_client : varchar" style="text;align=left;verticalAlign=top;spacingLeft=4;spacingRight=4;overflow=hidden;rotatable=0;points=[[0,0.5],[1,0.5]];portConstraint=eastwest;" vertex="1" parent="zkfFHV4jXpPFQw0GAbJ--0">
          <mxGeometry y="90" width="180" height="30" as="geometry" />
        </mxCell>
        <mxCell id="r8cF7Tmfr1MvhlO6L7BX-1" style="edgeStyle=orthogonalEdgeStyle;rounded=0;orthogonalLoop=1;jettySize=auto;html=1;exitX=0.5;exitY=0;exitDx=0;exitDy=0;entryX=0.5;entryY=1;entryDx=0;entryDy=0;endArrow=none;endFill=0;" edge="1" parent="WIyWlLk6GJQsqaUBKTNV-1" source="r8cF7Tmfr1MvhlO6L7BX-11" target="zkfFHV4jXpPFQw0GAbJ--17">
          <mxGeometry relative="1" as="geometry">
            <Array as="points">
              <mxPoint x="414" y="460" />
              <mxPoint x="610" y="460" />
              <mxPoint x="610" y="312" />
            </Array>
          </mxGeometry>
        </mxCell>
        <mxCell id="zkfFHV4jXpPFQw0GAbJ--13" value="Prestataire" style="swimlane;fontStyle=0;align=center;verticalAlign=top;childLayout=stackLayout;horizontal=1;startSize=26;horizontalStack=0;resizeParent=1;resizeLast=0;collapsible=1;marginBottom=0;rounded=0;shadow=0;strokeWidth=1;" vertex="1" parent="WIyWlLk6GJQsqaUBKTNV-1">
          <mxGeometry x="245" y="728" width="160" height="130" as="geometry">
            <mxRectangle x="340" y="380" width="170" height="26" as="alternateBounds" />
          </mxGeometry>
        </mxCell>
        <mxCell id="zkfFHV4jXpPFQw0GAbJ--14" value="id_prestataire: int" style="text;align=left;verticalAlign=top;spacingLeft=4;spacingRight=4;overflow=hidden;rotatable=0;points=[[0,0.5],[1,0.5]];portConstraint=eastwest;fontStyle=4" vertex="1" parent="zkfFHV4jXpPFQw0GAbJ--13">
          <mxGeometry y="26" width="160" height="22" as="geometry" />
        </mxCell>
        <mxCell id="zkfFHV4jXpPFQw0GAbJ--15" value="" style="line;html=1;strokeWidth=1;align=left;verticalAlign=middle;spacingTop=-1;spacingLeft=3;spacingRight=3;rotatable=0;labelPosition=right;points=[];portConstraint=eastwest;" vertex="1" parent="zkfFHV4jXpPFQw0GAbJ--13">
          <mxGeometry y="48" width="160" height="22" as="geometry" />
        </mxCell>
        <mxCell id="4VX-IWEpqfxix7lR_fn8-22" value="&lt;div align=&quot;left&quot;&gt;id_commercial&lt;/div&gt;" style="text;html=1;align=left;verticalAlign=middle;resizable=0;points=[];autosize=1;strokeColor=none;fillColor=none;" vertex="1" parent="zkfFHV4jXpPFQw0GAbJ--13">
          <mxGeometry y="70" width="160" height="30" as="geometry" />
        </mxCell>
        <mxCell id="zkfFHV4jXpPFQw0GAbJ--17" value="Utilisateur" style="swimlane;fontStyle=0;align=center;verticalAlign=top;childLayout=stackLayout;horizontal=1;startSize=26;horizontalStack=0;resizeParent=1;resizeLast=0;collapsible=1;marginBottom=0;rounded=0;shadow=0;strokeWidth=1;" vertex="1" parent="WIyWlLk6GJQsqaUBKTNV-1">
          <mxGeometry x="580" y="120" width="160" height="192" as="geometry">
            <mxRectangle x="550" y="140" width="160" height="26" as="alternateBounds" />
          </mxGeometry>
        </mxCell>
        <mxCell id="zkfFHV4jXpPFQw0GAbJ--18" value="id_utilisateur : int" style="text;align=left;verticalAlign=top;spacingLeft=4;spacingRight=4;overflow=hidden;rotatable=0;points=[[0,0.5],[1,0.5]];portConstraint=eastwest;fontStyle=4" vertex="1" parent="zkfFHV4jXpPFQw0GAbJ--17">
          <mxGeometry y="26" width="160" height="26" as="geometry" />
        </mxCell>
        <mxCell id="zkfFHV4jXpPFQw0GAbJ--23" value="" style="line;html=1;strokeWidth=1;align=left;verticalAlign=middle;spacingTop=-1;spacingLeft=3;spacingRight=3;rotatable=0;labelPosition=right;points=[];portConstraint=eastwest;" vertex="1" parent="zkfFHV4jXpPFQw0GAbJ--17">
          <mxGeometry y="52" width="160" height="8" as="geometry" />
        </mxCell>
        <mxCell id="zkfFHV4jXpPFQw0GAbJ--19" value="nom : varchar" style="text;align=left;verticalAlign=top;spacingLeft=4;spacingRight=4;overflow=hidden;rotatable=0;points=[[0,0.5],[1,0.5]];portConstraint=eastwest;rounded=0;shadow=0;html=0;" vertex="1" parent="zkfFHV4jXpPFQw0GAbJ--17">
          <mxGeometry y="60" width="160" height="26" as="geometry" />
        </mxCell>
        <mxCell id="zkfFHV4jXpPFQw0GAbJ--20" value="prenom : varchar" style="text;align=left;verticalAlign=top;spacingLeft=4;spacingRight=4;overflow=hidden;rotatable=0;points=[[0,0.5],[1,0.5]];portConstraint=eastwest;rounded=0;shadow=0;html=0;" vertex="1" parent="zkfFHV4jXpPFQw0GAbJ--17">
          <mxGeometry y="86" width="160" height="26" as="geometry" />
        </mxCell>
        <mxCell id="VgTCf65hGkGBiv4SzayO-0" value="&lt;div align=&quot;left&quot;&gt;&amp;nbsp;identifiant : int&lt;br&gt;&lt;/div&gt;" style="text;html=1;align=left;verticalAlign=middle;resizable=0;points=[];autosize=1;strokeColor=none;fillColor=none;" vertex="1" parent="zkfFHV4jXpPFQw0GAbJ--17">
          <mxGeometry y="112" width="160" height="30" as="geometry" />
        </mxCell>
        <mxCell id="zkfFHV4jXpPFQw0GAbJ--21" value="mdp : varchar" style="text;align=left;verticalAlign=top;spacingLeft=4;spacingRight=4;overflow=hidden;rotatable=0;points=[[0,0.5],[1,0.5]];portConstraint=eastwest;rounded=0;shadow=0;html=0;" vertex="1" parent="zkfFHV4jXpPFQw0GAbJ--17">
          <mxGeometry y="142" width="160" height="26" as="geometry" />
        </mxCell>
        <mxCell id="r8cF7Tmfr1MvhlO6L7BX-20" style="edgeStyle=orthogonalEdgeStyle;rounded=0;orthogonalLoop=1;jettySize=auto;html=1;exitX=0.5;exitY=0;exitDx=0;exitDy=0;entryX=0.5;entryY=1;entryDx=0;entryDy=0;endArrow=none;endFill=0;" edge="1" parent="WIyWlLk6GJQsqaUBKTNV-1" source="H-YiaezZ2ItrOvKAf6ly-4" target="r8cF7Tmfr1MvhlO6L7BX-18">
          <mxGeometry relative="1" as="geometry" />
        </mxCell>
        <mxCell id="H-YiaezZ2ItrOvKAf6ly-4" value="Gestionnaire" style="swimlane;fontStyle=0;align=center;verticalAlign=top;childLayout=stackLayout;horizontal=1;startSize=26;horizontalStack=0;resizeParent=1;resizeLast=0;collapsible=1;marginBottom=0;rounded=0;shadow=0;strokeWidth=1;" vertex="1" parent="WIyWlLk6GJQsqaUBKTNV-1">
          <mxGeometry x="960" y="673" width="160" height="140" as="geometry">
            <mxRectangle x="340" y="380" width="170" height="26" as="alternateBounds" />
          </mxGeometry>
        </mxCell>
        <mxCell id="H-YiaezZ2ItrOvKAf6ly-5" value="id_gestionnaire : int" style="text;align=left;verticalAlign=top;spacingLeft=4;spacingRight=4;overflow=hidden;rotatable=0;points=[[0,0.5],[1,0.5]];portConstraint=eastwest;fontStyle=4" vertex="1" parent="H-YiaezZ2ItrOvKAf6ly-4">
          <mxGeometry y="26" width="160" height="26" as="geometry" />
        </mxCell>
        <mxCell id="H-YiaezZ2ItrOvKAf6ly-7" value="" style="line;html=1;strokeWidth=1;align=left;verticalAlign=middle;spacingTop=-1;spacingLeft=3;spacingRight=3;rotatable=0;labelPosition=right;points=[];portConstraint=eastwest;" vertex="1" parent="H-YiaezZ2ItrOvKAf6ly-4">
          <mxGeometry y="52" width="160" height="50" as="geometry" />
        </mxCell>
        <mxCell id="hXFzakuoVYyd7BPLc7XW-0" value="id_prestataire: int" style="text;align=left;verticalAlign=top;spacingLeft=4;spacingRight=4;overflow=hidden;rotatable=0;points=[[0,0.5],[1,0.5]];portConstraint=eastwest;" vertex="1" parent="H-YiaezZ2ItrOvKAf6ly-4">
          <mxGeometry y="102" width="160" height="26" as="geometry" />
        </mxCell>
        <mxCell id="H-YiaezZ2ItrOvKAf6ly-8" value="Commercial" style="swimlane;fontStyle=0;align=center;verticalAlign=top;childLayout=stackLayout;horizontal=1;startSize=26;horizontalStack=0;resizeParent=1;resizeLast=0;collapsible=1;marginBottom=0;rounded=0;shadow=0;strokeWidth=1;" vertex="1" parent="WIyWlLk6GJQsqaUBKTNV-1">
          <mxGeometry x="520" y="728" width="160" height="130" as="geometry">
            <mxRectangle x="340" y="380" width="170" height="26" as="alternateBounds" />
          </mxGeometry>
        </mxCell>
        <mxCell id="H-YiaezZ2ItrOvKAf6ly-9" value="id_commercial: int" style="text;align=left;verticalAlign=top;spacingLeft=4;spacingRight=4;overflow=hidden;rotatable=0;points=[[0,0.5],[1,0.5]];portConstraint=eastwest;fontStyle=4" vertex="1" parent="H-YiaezZ2ItrOvKAf6ly-8">
          <mxGeometry y="26" width="160" height="26" as="geometry" />
        </mxCell>
        <mxCell id="H-YiaezZ2ItrOvKAf6ly-11" value="" style="line;html=1;strokeWidth=1;align=left;verticalAlign=middle;spacingTop=-1;spacingLeft=3;spacingRight=3;rotatable=0;labelPosition=right;points=[];portConstraint=eastwest;" vertex="1" parent="H-YiaezZ2ItrOvKAf6ly-8">
          <mxGeometry y="52" width="160" height="50" as="geometry" />
        </mxCell>
        <mxCell id="GsKWChC2wjauNTD4po48-6" value="(1,1)" style="text;html=1;align=center;verticalAlign=middle;resizable=0;points=[];autosize=1;strokeColor=none;fillColor=none;" vertex="1" parent="WIyWlLk6GJQsqaUBKTNV-1">
          <mxGeometry x="995" y="648" width="50" height="30" as="geometry" />
        </mxCell>
        <mxCell id="GsKWChC2wjauNTD4po48-7" value="(1,1)" style="text;html=1;align=center;verticalAlign=middle;resizable=0;points=[];autosize=1;strokeColor=none;fillColor=none;" vertex="1" parent="WIyWlLk6GJQsqaUBKTNV-1">
          <mxGeometry x="595" y="690" width="50" height="30" as="geometry" />
        </mxCell>
        <mxCell id="r8cF7Tmfr1MvhlO6L7BX-5" value="1,1" style="text;html=1;align=center;verticalAlign=middle;resizable=0;points=[];autosize=1;strokeColor=none;fillColor=none;" vertex="1" parent="WIyWlLk6GJQsqaUBKTNV-1">
          <mxGeometry x="660" y="330" width="40" height="30" as="geometry" />
        </mxCell>
        <mxCell id="r8cF7Tmfr1MvhlO6L7BX-6" value="1,1" style="text;html=1;align=center;verticalAlign=middle;resizable=0;points=[];autosize=1;strokeColor=none;fillColor=none;" vertex="1" parent="WIyWlLk6GJQsqaUBKTNV-1">
          <mxGeometry x="605" y="330" width="40" height="30" as="geometry" />
        </mxCell>
        <mxCell id="r8cF7Tmfr1MvhlO6L7BX-7" value="1,1" style="text;html=1;align=center;verticalAlign=middle;resizable=0;points=[];autosize=1;strokeColor=none;fillColor=none;" vertex="1" parent="WIyWlLk6GJQsqaUBKTNV-1">
          <mxGeometry x="755" y="260" width="40" height="30" as="geometry" />
        </mxCell>
        <mxCell id="r8cF7Tmfr1MvhlO6L7BX-12" value="" style="edgeStyle=orthogonalEdgeStyle;rounded=0;orthogonalLoop=1;jettySize=auto;html=1;entryX=0.5;entryY=1;entryDx=0;entryDy=0;endArrow=none;endFill=0;exitX=0.614;exitY=0.002;exitDx=0;exitDy=0;exitPerimeter=0;" edge="1" parent="WIyWlLk6GJQsqaUBKTNV-1" source="zkfFHV4jXpPFQw0GAbJ--13" target="r8cF7Tmfr1MvhlO6L7BX-11">
          <mxGeometry relative="1" as="geometry">
            <mxPoint x="420" y="690" as="sourcePoint" />
            <mxPoint x="670" y="312" as="targetPoint" />
            <Array as="points">
              <mxPoint x="343" y="570" />
            </Array>
          </mxGeometry>
        </mxCell>
        <mxCell id="r8cF7Tmfr1MvhlO6L7BX-11" value="peut-etre" style="ellipse;whiteSpace=wrap;html=1;strokeColor=#000000;verticalAlign=top;" vertex="1" parent="WIyWlLk6GJQsqaUBKTNV-1">
          <mxGeometry x="354" y="490" width="120" height="80" as="geometry" />
        </mxCell>
        <mxCell id="r8cF7Tmfr1MvhlO6L7BX-17" value="" style="edgeStyle=orthogonalEdgeStyle;rounded=0;orthogonalLoop=1;jettySize=auto;html=1;endArrow=none;endFill=0;entryX=0.5;entryY=1;entryDx=0;entryDy=0;exitX=0.5;exitY=0;exitDx=0;exitDy=0;" edge="1" parent="WIyWlLk6GJQsqaUBKTNV-1" source="H-YiaezZ2ItrOvKAf6ly-8" target="r8cF7Tmfr1MvhlO6L7BX-16">
          <mxGeometry relative="1" as="geometry">
            <mxPoint x="730.0476190476188" y="519.9951526854115" as="targetPoint" />
            <mxPoint x="760" y="690" as="sourcePoint" />
            <Array as="points">
              <mxPoint x="600" y="651" />
              <mxPoint x="660" y="651" />
            </Array>
          </mxGeometry>
        </mxCell>
        <mxCell id="r8cF7Tmfr1MvhlO6L7BX-23" style="edgeStyle=orthogonalEdgeStyle;rounded=0;orthogonalLoop=1;jettySize=auto;html=1;exitX=0.389;exitY=0.018;exitDx=0;exitDy=0;endArrow=none;endFill=0;exitPerimeter=0;" edge="1" parent="WIyWlLk6GJQsqaUBKTNV-1" source="r8cF7Tmfr1MvhlO6L7BX-16">
          <mxGeometry relative="1" as="geometry">
            <mxPoint x="659.4705882352941" y="312" as="targetPoint" />
            <mxPoint x="630" y="482" as="sourcePoint" />
            <Array as="points">
              <mxPoint x="660" y="546" />
              <mxPoint x="660" y="531" />
              <mxPoint x="660" y="531" />
            </Array>
          </mxGeometry>
        </mxCell>
        <mxCell id="r8cF7Tmfr1MvhlO6L7BX-16" value="peut-etre" style="ellipse;whiteSpace=wrap;html=1;strokeColor=#000000;verticalAlign=top;" vertex="1" parent="WIyWlLk6GJQsqaUBKTNV-1">
          <mxGeometry x="600" y="480" width="120" height="80" as="geometry" />
        </mxCell>
        <mxCell id="GsKWChC2wjauNTD4po48-14" style="edgeStyle=orthogonalEdgeStyle;rounded=0;orthogonalLoop=1;jettySize=auto;html=1;endArrow=none;endFill=0;exitX=0.433;exitY=0.004;exitDx=0;exitDy=0;exitPerimeter=0;" edge="1" parent="WIyWlLk6GJQsqaUBKTNV-1" source="r8cF7Tmfr1MvhlO6L7BX-18">
          <mxGeometry relative="1" as="geometry">
            <mxPoint x="720" y="312" as="targetPoint" />
            <mxPoint x="850" y="510" as="sourcePoint" />
            <Array as="points">
              <mxPoint x="862" y="460" />
              <mxPoint x="720" y="460" />
              <mxPoint x="720" y="402" />
              <mxPoint x="721" y="312" />
            </Array>
          </mxGeometry>
        </mxCell>
        <mxCell id="r8cF7Tmfr1MvhlO6L7BX-18" value="peut-etre" style="ellipse;whiteSpace=wrap;html=1;strokeColor=#000000;horizontal=1;verticalAlign=top;" vertex="1" parent="WIyWlLk6GJQsqaUBKTNV-1">
          <mxGeometry x="810" y="480" width="120" height="80" as="geometry" />
        </mxCell>
        <mxCell id="r8cF7Tmfr1MvhlO6L7BX-24" value="(1,1)" style="text;html=1;align=center;verticalAlign=middle;resizable=0;points=[];autosize=1;strokeColor=none;fillColor=none;" vertex="1" parent="WIyWlLk6GJQsqaUBKTNV-1">
          <mxGeometry x="990" y="312" width="50" height="30" as="geometry" />
        </mxCell>
        <mxCell id="GsKWChC2wjauNTD4po48-15" value="1,1" style="text;html=1;align=center;verticalAlign=middle;resizable=0;points=[];autosize=1;strokeColor=none;fillColor=none;" vertex="1" parent="WIyWlLk6GJQsqaUBKTNV-1">
          <mxGeometry x="720" y="330" width="40" height="30" as="geometry" />
        </mxCell>
        <mxCell id="GsKWChC2wjauNTD4po48-16" value="(1,1)" style="text;html=1;align=center;verticalAlign=middle;resizable=0;points=[];autosize=1;strokeColor=none;fillColor=none;" vertex="1" parent="WIyWlLk6GJQsqaUBKTNV-1">
          <mxGeometry x="340" y="690" width="50" height="30" as="geometry" />
        </mxCell>
        <mxCell id="yloqT6-iONhfcy8AMaFR-0" value="interlocuteurs" style="swimlane;fontStyle=2;align=center;verticalAlign=top;childLayout=stackLayout;horizontal=1;startSize=26;horizontalStack=0;resizeParent=1;resizeLast=0;collapsible=1;marginBottom=0;rounded=0;shadow=0;strokeWidth=1;" vertex="1" parent="WIyWlLk6GJQsqaUBKTNV-1">
          <mxGeometry x="1030" y="-130" width="160" height="146" as="geometry">
            <mxRectangle x="230" y="140" width="160" height="26" as="alternateBounds" />
          </mxGeometry>
        </mxCell>
        <mxCell id="yloqT6-iONhfcy8AMaFR-1" value="id_interlocuteur : int " style="text;align=left;verticalAlign=top;spacingLeft=4;spacingRight=4;overflow=hidden;rotatable=0;points=[[0,0.5],[1,0.5]];portConstraint=eastwest;fontStyle=4" vertex="1" parent="yloqT6-iONhfcy8AMaFR-0">
          <mxGeometry y="26" width="160" height="26" as="geometry" />
        </mxCell>
        <mxCell id="yloqT6-iONhfcy8AMaFR-3" value="" style="line;html=1;strokeWidth=1;align=left;verticalAlign=middle;spacingTop=-1;spacingLeft=3;spacingRight=3;rotatable=0;labelPosition=right;points=[];portConstraint=eastwest;" vertex="1" parent="yloqT6-iONhfcy8AMaFR-0">
          <mxGeometry y="52" width="160" height="8" as="geometry" />
        </mxCell>
        <mxCell id="yloqT6-iONhfcy8AMaFR-5" value="&#xa;" style="text;align=left;verticalAlign=top;spacingLeft=4;spacingRight=4;overflow=hidden;rotatable=0;points=[[0,0.5],[1,0.5]];portConstraint=eastwest;" vertex="1" parent="yloqT6-iONhfcy8AMaFR-0">
          <mxGeometry y="60" width="160" height="30" as="geometry" />
        </mxCell>
        <mxCell id="4VX-IWEpqfxix7lR_fn8-24" value="&lt;div align=&quot;left&quot;&gt;id_commercial&lt;/div&gt;" style="text;html=1;align=left;verticalAlign=middle;resizable=0;points=[];autosize=1;strokeColor=none;fillColor=none;" vertex="1" parent="yloqT6-iONhfcy8AMaFR-0">
          <mxGeometry y="90" width="160" height="30" as="geometry" />
        </mxCell>
        <mxCell id="cY50sO9wqADXYjhuxMTf-0" value="Composante" style="swimlane;fontStyle=0;align=center;verticalAlign=top;childLayout=stackLayout;horizontal=1;startSize=26;horizontalStack=0;resizeParent=1;resizeLast=0;collapsible=1;marginBottom=0;rounded=0;shadow=0;strokeWidth=1;" vertex="1" parent="WIyWlLk6GJQsqaUBKTNV-1">
          <mxGeometry x="1290" y="304" width="160" height="186" as="geometry">
            <mxRectangle x="340" y="380" width="170" height="26" as="alternateBounds" />
          </mxGeometry>
        </mxCell>
        <mxCell id="cY50sO9wqADXYjhuxMTf-1" value="id_composante : int" style="text;align=left;verticalAlign=top;spacingLeft=4;spacingRight=4;overflow=hidden;rotatable=0;points=[[0,0.5],[1,0.5]];portConstraint=eastwest;fontStyle=4" vertex="1" parent="cY50sO9wqADXYjhuxMTf-0">
          <mxGeometry y="26" width="160" height="24" as="geometry" />
        </mxCell>
        <mxCell id="cY50sO9wqADXYjhuxMTf-2" value="" style="line;html=1;strokeWidth=1;align=left;verticalAlign=middle;spacingTop=-1;spacingLeft=3;spacingRight=3;rotatable=0;labelPosition=right;points=[];portConstraint=eastwest;" vertex="1" parent="cY50sO9wqADXYjhuxMTf-0">
          <mxGeometry y="50" width="160" height="10" as="geometry" />
        </mxCell>
        <mxCell id="VgTCf65hGkGBiv4SzayO-3" value="nomComposante : varchar" style="text;html=1;align=left;verticalAlign=middle;resizable=0;points=[];autosize=1;strokeColor=none;fillColor=none;" vertex="1" parent="cY50sO9wqADXYjhuxMTf-0">
          <mxGeometry y="60" width="160" height="30" as="geometry" />
        </mxCell>
        <mxCell id="4VX-IWEpqfxix7lR_fn8-25" value="&lt;div align=&quot;left&quot;&gt;id_commercial&lt;/div&gt;" style="text;html=1;align=left;verticalAlign=middle;resizable=0;points=[];autosize=1;strokeColor=none;fillColor=none;" vertex="1" parent="cY50sO9wqADXYjhuxMTf-0">
          <mxGeometry y="90" width="160" height="30" as="geometry" />
        </mxCell>
        <mxCell id="yloqT6-iONhfcy8AMaFR-9" value="peut-etre" style="ellipse;whiteSpace=wrap;html=1;strokeColor=#000000;verticalAlign=top;" vertex="1" parent="WIyWlLk6GJQsqaUBKTNV-1">
          <mxGeometry x="800" y="-10" width="120" height="80" as="geometry" />
        </mxCell>
        <mxCell id="Qx0_Vy0SEGjXInIhhARa-0" value="1,1" style="text;html=1;align=center;verticalAlign=middle;resizable=0;points=[];autosize=1;strokeColor=none;fillColor=none;" vertex="1" parent="WIyWlLk6GJQsqaUBKTNV-1">
          <mxGeometry x="735" y="170" width="40" height="30" as="geometry" />
        </mxCell>
        <mxCell id="Qx0_Vy0SEGjXInIhhARa-3" style="edgeStyle=orthogonalEdgeStyle;rounded=0;orthogonalLoop=1;jettySize=auto;html=1;endArrow=none;endFill=0;" edge="1" parent="WIyWlLk6GJQsqaUBKTNV-1" source="zkfFHV4jXpPFQw0GAbJ--19" target="yloqT6-iONhfcy8AMaFR-9">
          <mxGeometry relative="1" as="geometry" />
        </mxCell>
        <mxCell id="Qx0_Vy0SEGjXInIhhARa-4" style="edgeStyle=orthogonalEdgeStyle;rounded=0;orthogonalLoop=1;jettySize=auto;html=1;entryX=0.012;entryY=0.933;entryDx=0;entryDy=0;entryPerimeter=0;endArrow=none;endFill=0;" edge="1" parent="WIyWlLk6GJQsqaUBKTNV-1" source="yloqT6-iONhfcy8AMaFR-9" target="yloqT6-iONhfcy8AMaFR-5">
          <mxGeometry relative="1" as="geometry" />
        </mxCell>
        <mxCell id="Qx0_Vy0SEGjXInIhhARa-5" style="edgeStyle=orthogonalEdgeStyle;rounded=0;orthogonalLoop=1;jettySize=auto;html=1;endArrow=none;endFill=0;" edge="1" parent="WIyWlLk6GJQsqaUBKTNV-1" source="yloqT6-iONhfcy8AMaFR-5" target="cY50sO9wqADXYjhuxMTf-0">
          <mxGeometry relative="1" as="geometry">
            <Array as="points">
              <mxPoint x="1320" y="-55" />
            </Array>
          </mxGeometry>
        </mxCell>
        <mxCell id="LsUnes4z9QJFX6II0UFR-1" value="1.1" style="text;html=1;align=center;verticalAlign=middle;resizable=0;points=[];autosize=1;strokeColor=none;fillColor=none;" vertex="1" parent="WIyWlLk6GJQsqaUBKTNV-1">
          <mxGeometry x="960" y="-82" width="40" height="30" as="geometry" />
        </mxCell>
        <mxCell id="LsUnes4z9QJFX6II0UFR-2" value="1.n" style="text;html=1;align=center;verticalAlign=middle;resizable=0;points=[];autosize=1;strokeColor=none;fillColor=none;" vertex="1" parent="WIyWlLk6GJQsqaUBKTNV-1">
          <mxGeometry x="1200" y="-92" width="40" height="30" as="geometry" />
        </mxCell>
        <mxCell id="cUmf8kSam2FWakfLuxwv-1" value="1.n" style="text;html=1;align=center;verticalAlign=middle;resizable=0;points=[];autosize=1;strokeColor=none;fillColor=none;" vertex="1" parent="WIyWlLk6GJQsqaUBKTNV-1">
          <mxGeometry x="1391" y="261" width="40" height="30" as="geometry" />
        </mxCell>
        <mxCell id="cUmf8kSam2FWakfLuxwv-4" value="BDL" style="swimlane;fontStyle=0;align=center;verticalAlign=top;childLayout=stackLayout;horizontal=1;startSize=26;horizontalStack=0;resizeParent=1;resizeLast=0;collapsible=1;marginBottom=0;rounded=0;shadow=0;strokeWidth=1;" vertex="1" parent="WIyWlLk6GJQsqaUBKTNV-1">
          <mxGeometry x="1389" y="806" width="160" height="214" as="geometry">
            <mxRectangle x="340" y="380" width="170" height="26" as="alternateBounds" />
          </mxGeometry>
        </mxCell>
        <mxCell id="cUmf8kSam2FWakfLuxwv-5" value="id_BDL : int " style="text;align=left;verticalAlign=top;spacingLeft=4;spacingRight=4;overflow=hidden;rotatable=0;points=[[0,0.5],[1,0.5]];portConstraint=eastwest;fontStyle=4" vertex="1" parent="cUmf8kSam2FWakfLuxwv-4">
          <mxGeometry y="26" width="160" height="26" as="geometry" />
        </mxCell>
        <mxCell id="cUmf8kSam2FWakfLuxwv-7" value="" style="line;html=1;strokeWidth=1;align=left;verticalAlign=middle;spacingTop=-1;spacingLeft=3;spacingRight=3;rotatable=0;labelPosition=right;points=[];portConstraint=eastwest;" vertex="1" parent="cUmf8kSam2FWakfLuxwv-4">
          <mxGeometry y="52" width="160" height="32" as="geometry" />
        </mxCell>
        <mxCell id="LsUnes4z9QJFX6II0UFR-7" value="commentaire : varchar" style="text;align=left;verticalAlign=top;spacingLeft=4;spacingRight=4;overflow=hidden;rotatable=0;points=[[0,0.5],[1,0.5]];portConstraint=eastwest;" vertex="1" parent="cUmf8kSam2FWakfLuxwv-4">
          <mxGeometry y="84" width="160" height="26" as="geometry" />
        </mxCell>
        <mxCell id="cUmf8kSam2FWakfLuxwv-9" value="Date : Date " style="text;align=left;verticalAlign=top;spacingLeft=4;spacingRight=4;overflow=hidden;rotatable=0;points=[[0,0.5],[1,0.5]];portConstraint=eastwest;" vertex="1" parent="cUmf8kSam2FWakfLuxwv-4">
          <mxGeometry y="110" width="160" height="26" as="geometry" />
        </mxCell>
        <mxCell id="cUmf8kSam2FWakfLuxwv-10" value="heure : heure" style="text;align=left;verticalAlign=top;spacingLeft=4;spacingRight=4;overflow=hidden;rotatable=0;points=[[0,0.5],[1,0.5]];portConstraint=eastwest;" vertex="1" parent="cUmf8kSam2FWakfLuxwv-4">
          <mxGeometry y="136" width="160" height="26" as="geometry" />
        </mxCell>
        <mxCell id="cUmf8kSam2FWakfLuxwv-11" value="Absence : bool" style="text;align=left;verticalAlign=top;spacingLeft=4;spacingRight=4;overflow=hidden;rotatable=0;points=[[0,0.5],[1,0.5]];portConstraint=eastwest;" vertex="1" parent="cUmf8kSam2FWakfLuxwv-4">
          <mxGeometry y="162" width="160" height="26" as="geometry" />
        </mxCell>
        <mxCell id="LsUnes4z9QJFX6II0UFR-11" style="edgeStyle=orthogonalEdgeStyle;rounded=0;orthogonalLoop=1;jettySize=auto;html=1;entryX=0;entryY=0.5;entryDx=0;entryDy=0;endArrow=none;endFill=0;exitX=1;exitY=0.5;exitDx=0;exitDy=0;" edge="1" parent="WIyWlLk6GJQsqaUBKTNV-1" source="eAgricTTIR-x8T2Kgh-k-5" target="cUmf8kSam2FWakfLuxwv-10">
          <mxGeometry relative="1" as="geometry" />
        </mxCell>
        <mxCell id="LsUnes4z9QJFX6II0UFR-12" value="0,n" style="text;html=1;align=center;verticalAlign=middle;resizable=0;points=[];autosize=1;strokeColor=none;fillColor=none;" vertex="1" parent="WIyWlLk6GJQsqaUBKTNV-1">
          <mxGeometry x="1399" y="758" width="40" height="30" as="geometry" />
        </mxCell>
        <mxCell id="LsUnes4z9QJFX6II0UFR-13" value="1,1" style="text;html=1;align=center;verticalAlign=middle;resizable=0;points=[];autosize=1;strokeColor=none;fillColor=none;" vertex="1" parent="WIyWlLk6GJQsqaUBKTNV-1">
          <mxGeometry x="1325" y="908" width="40" height="30" as="geometry" />
        </mxCell>
        <mxCell id="LsUnes4z9QJFX6II0UFR-14" value="(1,1)" style="text;html=1;align=center;verticalAlign=middle;resizable=0;points=[];autosize=1;strokeColor=none;fillColor=none;" vertex="1" parent="WIyWlLk6GJQsqaUBKTNV-1">
          <mxGeometry x="1320" y="990" width="50" height="30" as="geometry" />
        </mxCell>
        <mxCell id="VgTCf65hGkGBiv4SzayO-4" value="(1,1)" style="text;html=1;align=center;verticalAlign=middle;resizable=0;points=[];autosize=1;strokeColor=none;fillColor=none;" vertex="1" parent="WIyWlLk6GJQsqaUBKTNV-1">
          <mxGeometry x="1465" y="358" width="50" height="30" as="geometry" />
        </mxCell>
        <mxCell id="VgTCf65hGkGBiv4SzayO-6" value="" style="edgeStyle=orthogonalEdgeStyle;rounded=0;orthogonalLoop=1;jettySize=auto;html=1;entryX=0;entryY=0.5;entryDx=0;entryDy=0;endArrow=none;endFill=0;" edge="1" parent="WIyWlLk6GJQsqaUBKTNV-1" source="cY50sO9wqADXYjhuxMTf-0" target="H-YiaezZ2ItrOvKAf6ly-0">
          <mxGeometry relative="1" as="geometry">
            <mxPoint x="1460" y="397" as="sourcePoint" />
            <mxPoint x="1690" y="369" as="targetPoint" />
            <Array as="points" />
          </mxGeometry>
        </mxCell>
        <mxCell id="VgTCf65hGkGBiv4SzayO-5" value="&lt;div&gt;1,n&lt;/div&gt;&lt;div&gt;&lt;br&gt;&lt;/div&gt;" style="text;html=1;align=center;verticalAlign=middle;resizable=0;points=[];autosize=1;strokeColor=none;fillColor=none;" vertex="1" parent="WIyWlLk6GJQsqaUBKTNV-1">
          <mxGeometry x="1650" y="367" width="40" height="40" as="geometry" />
        </mxCell>
        <mxCell id="VgTCf65hGkGBiv4SzayO-14" value="0,n" style="text;html=1;align=center;verticalAlign=middle;resizable=0;points=[];autosize=1;strokeColor=none;fillColor=none;" vertex="1" parent="WIyWlLk6GJQsqaUBKTNV-1">
          <mxGeometry x="320" y="860" width="40" height="30" as="geometry" />
        </mxCell>
        <mxCell id="VgTCf65hGkGBiv4SzayO-22" value="0,n" style="text;html=1;align=center;verticalAlign=middle;resizable=0;points=[];autosize=1;strokeColor=none;fillColor=none;" vertex="1" parent="WIyWlLk6GJQsqaUBKTNV-1">
          <mxGeometry x="1120" y="678" width="40" height="30" as="geometry" />
        </mxCell>
        <mxCell id="4VX-IWEpqfxix7lR_fn8-18" style="edgeStyle=orthogonalEdgeStyle;rounded=0;orthogonalLoop=1;jettySize=auto;html=1;entryX=0.5;entryY=1;entryDx=0;entryDy=0;endArrow=none;endFill=0;" edge="1" parent="WIyWlLk6GJQsqaUBKTNV-1">
          <mxGeometry relative="1" as="geometry">
            <mxPoint x="1040" y="900" as="sourcePoint" />
            <mxPoint x="390" y="858" as="targetPoint" />
          </mxGeometry>
        </mxCell>
        <mxCell id="4VX-IWEpqfxix7lR_fn8-1" style="edgeStyle=orthogonalEdgeStyle;rounded=0;orthogonalLoop=1;jettySize=auto;html=1;exitX=0.5;exitY=1;exitDx=0;exitDy=0;entryX=0.5;entryY=0;entryDx=0;entryDy=0;endArrow=none;endFill=0;" edge="1" parent="WIyWlLk6GJQsqaUBKTNV-1">
          <mxGeometry relative="1" as="geometry">
            <Array as="points">
              <mxPoint x="1105.04" y="460" />
              <mxPoint x="1105.04" y="460" />
            </Array>
            <mxPoint x="1105.04" y="401" as="sourcePoint" />
            <mxPoint x="1105.04" y="520" as="targetPoint" />
          </mxGeometry>
        </mxCell>
        <mxCell id="4VX-IWEpqfxix7lR_fn8-2" value="Administrateur" style="swimlane;fontStyle=0;align=center;verticalAlign=top;childLayout=stackLayout;horizontal=1;startSize=26;horizontalStack=0;resizeParent=1;resizeLast=0;collapsible=1;marginBottom=0;rounded=0;shadow=0;strokeWidth=1;" vertex="1" parent="WIyWlLk6GJQsqaUBKTNV-1">
          <mxGeometry x="1030" y="260" width="160" height="141" as="geometry">
            <mxRectangle x="340" y="380" width="170" height="26" as="alternateBounds" />
          </mxGeometry>
        </mxCell>
        <mxCell id="4VX-IWEpqfxix7lR_fn8-3" value="id_administrateur" style="text;align=left;verticalAlign=top;spacingLeft=4;spacingRight=4;overflow=hidden;rotatable=0;points=[[0,0.5],[1,0.5]];portConstraint=eastwest;fontStyle=4" vertex="1" parent="4VX-IWEpqfxix7lR_fn8-2">
          <mxGeometry y="26" width="160" height="26" as="geometry" />
        </mxCell>
        <mxCell id="4VX-IWEpqfxix7lR_fn8-13" value="" style="line;html=1;strokeWidth=1;align=left;verticalAlign=middle;spacingTop=-1;spacingLeft=3;spacingRight=3;rotatable=0;labelPosition=right;points=[];portConstraint=eastwest;" vertex="1" parent="4VX-IWEpqfxix7lR_fn8-2">
          <mxGeometry y="52" width="160" height="10" as="geometry" />
        </mxCell>
        <mxCell id="4VX-IWEpqfxix7lR_fn8-5" value="id_utilisateur" style="text;align=left;verticalAlign=top;spacingLeft=4;spacingRight=4;overflow=hidden;rotatable=0;points=[[0,0.5],[1,0.5]];portConstraint=eastwest;" vertex="1" parent="4VX-IWEpqfxix7lR_fn8-2">
          <mxGeometry y="62" width="160" height="26" as="geometry" />
        </mxCell>
        <mxCell id="4VX-IWEpqfxix7lR_fn8-6" value="1,n" style="text;html=1;align=center;verticalAlign=middle;resizable=0;points=[];autosize=1;strokeColor=none;fillColor=none;" vertex="1" parent="WIyWlLk6GJQsqaUBKTNV-1">
          <mxGeometry x="1060" y="401" width="40" height="30" as="geometry" />
        </mxCell>
        <mxCell id="4VX-IWEpqfxix7lR_fn8-7" value="&lt;div&gt;Ajouter&lt;/div&gt;" style="ellipse;whiteSpace=wrap;html=1;strokeColor=#000000;verticalAlign=top;" vertex="1" parent="WIyWlLk6GJQsqaUBKTNV-1">
          <mxGeometry x="1050" y="520" width="120" height="80" as="geometry" />
        </mxCell>
        <mxCell id="4VX-IWEpqfxix7lR_fn8-9" value="peut-etre" style="ellipse;whiteSpace=wrap;html=1;strokeColor=#000000;verticalAlign=top;" vertex="1" parent="WIyWlLk6GJQsqaUBKTNV-1">
          <mxGeometry x="827" y="250" width="120" height="80" as="geometry" />
        </mxCell>
        <mxCell id="4VX-IWEpqfxix7lR_fn8-10" style="edgeStyle=orthogonalEdgeStyle;rounded=0;orthogonalLoop=1;jettySize=auto;html=1;exitX=1;exitY=0.5;exitDx=0;exitDy=0;endArrow=none;endFill=0;" edge="1" parent="WIyWlLk6GJQsqaUBKTNV-1" source="4VX-IWEpqfxix7lR_fn8-9">
          <mxGeometry relative="1" as="geometry">
            <Array as="points">
              <mxPoint x="960" y="290" />
              <mxPoint x="960" y="338" />
            </Array>
            <mxPoint x="960.04" y="358" as="sourcePoint" />
            <mxPoint x="1030" y="338" as="targetPoint" />
          </mxGeometry>
        </mxCell>
        <mxCell id="4VX-IWEpqfxix7lR_fn8-11" style="edgeStyle=orthogonalEdgeStyle;rounded=0;orthogonalLoop=1;jettySize=auto;html=1;exitX=1.009;exitY=0.231;exitDx=0;exitDy=0;endArrow=none;endFill=0;exitPerimeter=0;" edge="1" parent="WIyWlLk6GJQsqaUBKTNV-1" source="VgTCf65hGkGBiv4SzayO-0">
          <mxGeometry relative="1" as="geometry">
            <Array as="points">
              <mxPoint x="741" y="240" />
              <mxPoint x="757" y="240" />
              <mxPoint x="757" y="288" />
            </Array>
            <mxPoint x="744" y="240" as="sourcePoint" />
            <mxPoint x="827" y="288" as="targetPoint" />
          </mxGeometry>
        </mxCell>
        <mxCell id="4VX-IWEpqfxix7lR_fn8-15" style="edgeStyle=orthogonalEdgeStyle;rounded=0;orthogonalLoop=1;jettySize=auto;html=1;exitX=0.5;exitY=1;exitDx=0;exitDy=0;endArrow=none;endFill=0;" edge="1" parent="WIyWlLk6GJQsqaUBKTNV-1" target="H-YiaezZ2ItrOvKAf6ly-4">
          <mxGeometry relative="1" as="geometry">
            <Array as="points">
              <mxPoint x="1110" y="650" />
              <mxPoint x="1090" y="650" />
            </Array>
            <mxPoint x="1109.6" y="600" as="sourcePoint" />
            <mxPoint x="1110" y="670" as="targetPoint" />
          </mxGeometry>
        </mxCell>
        <mxCell id="4VX-IWEpqfxix7lR_fn8-19" style="edgeStyle=orthogonalEdgeStyle;rounded=0;orthogonalLoop=1;jettySize=auto;html=1;exitX=0.5;exitY=1;exitDx=0;exitDy=0;endArrow=none;endFill=0;" edge="1" parent="WIyWlLk6GJQsqaUBKTNV-1" source="H-YiaezZ2ItrOvKAf6ly-4">
          <mxGeometry relative="1" as="geometry">
            <Array as="points" />
            <mxPoint x="1040" y="840" as="sourcePoint" />
            <mxPoint x="1040" y="900" as="targetPoint" />
          </mxGeometry>
        </mxCell>
        <mxCell id="eBvMdN80flQo1UROnTcl-3" value="Ajouter" style="ellipse;whiteSpace=wrap;html=1;verticalAlign=top;" vertex="1" parent="WIyWlLk6GJQsqaUBKTNV-1">
          <mxGeometry x="695" y="860" width="120" height="80" as="geometry" />
        </mxCell>
        <mxCell id="eBvMdN80flQo1UROnTcl-4" value="0,n" style="text;html=1;align=center;verticalAlign=middle;resizable=0;points=[];autosize=1;strokeColor=none;fillColor=none;" vertex="1" parent="WIyWlLk6GJQsqaUBKTNV-1">
          <mxGeometry x="995" y="840" width="40" height="30" as="geometry" />
        </mxCell>
        <mxCell id="eAgricTTIR-x8T2Kgh-k-6" value="" style="edgeStyle=orthogonalEdgeStyle;rounded=0;orthogonalLoop=1;jettySize=auto;html=1;entryX=0;entryY=0.5;entryDx=0;entryDy=0;endArrow=none;endFill=0;exitX=0.5;exitY=1;exitDx=0;exitDy=0;" edge="1" parent="WIyWlLk6GJQsqaUBKTNV-1" source="zkfFHV4jXpPFQw0GAbJ--13" target="eAgricTTIR-x8T2Kgh-k-5">
          <mxGeometry relative="1" as="geometry">
            <mxPoint x="325" y="858" as="sourcePoint" />
            <mxPoint x="1389" y="955" as="targetPoint" />
          </mxGeometry>
        </mxCell>
        <mxCell id="eAgricTTIR-x8T2Kgh-k-5" value="&lt;div&gt;remplir&lt;/div&gt;" style="ellipse;whiteSpace=wrap;html=1;verticalAlign=top;" vertex="1" parent="WIyWlLk6GJQsqaUBKTNV-1">
          <mxGeometry x="935" y="916" width="120" height="80" as="geometry" />
        </mxCell>
        <mxCell id="4VX-IWEpqfxix7lR_fn8-27" value="" style="endArrow=none;html=1;rounded=0;edgeStyle=orthogonalEdgeStyle;entryX=1;entryY=0.5;entryDx=0;entryDy=0;exitX=0;exitY=0.5;exitDx=0;exitDy=0;endFill=0;" edge="1" parent="WIyWlLk6GJQsqaUBKTNV-1" source="4VX-IWEpqfxix7lR_fn8-7" target="4VX-IWEpqfxix7lR_fn8-7">
          <mxGeometry width="50" height="50" relative="1" as="geometry">
            <mxPoint x="1060" y="580" as="sourcePoint" />
            <mxPoint x="1110" y="530" as="targetPoint" />
          </mxGeometry>
        </mxCell>
        <mxCell id="eBvMdN80flQo1UROnTcl-6" value="" style="endArrow=none;html=1;rounded=0;edgeStyle=orthogonalEdgeStyle;entryX=1;entryY=0.5;entryDx=0;entryDy=0;exitX=0;exitY=0.5;exitDx=0;exitDy=0;endFill=0;" edge="1" parent="WIyWlLk6GJQsqaUBKTNV-1">
          <mxGeometry width="50" height="50" relative="1" as="geometry">
            <mxPoint x="810" y="519.13" as="sourcePoint" />
            <mxPoint x="930" y="519.13" as="targetPoint" />
          </mxGeometry>
        </mxCell>
        <mxCell id="eBvMdN80flQo1UROnTcl-7" value="" style="endArrow=none;html=1;rounded=0;edgeStyle=orthogonalEdgeStyle;entryX=1;entryY=0.5;entryDx=0;entryDy=0;exitX=0;exitY=0.5;exitDx=0;exitDy=0;endFill=0;" edge="1" parent="WIyWlLk6GJQsqaUBKTNV-1">
          <mxGeometry width="50" height="50" relative="1" as="geometry">
            <mxPoint x="600" y="519.13" as="sourcePoint" />
            <mxPoint x="720" y="519.13" as="targetPoint" />
          </mxGeometry>
        </mxCell>
        <mxCell id="eBvMdN80flQo1UROnTcl-8" value="" style="endArrow=none;html=1;rounded=0;edgeStyle=orthogonalEdgeStyle;entryX=1;entryY=0.5;entryDx=0;entryDy=0;exitX=0;exitY=0.5;exitDx=0;exitDy=0;endFill=0;" edge="1" parent="WIyWlLk6GJQsqaUBKTNV-1">
          <mxGeometry width="50" height="50" relative="1" as="geometry">
            <mxPoint x="827" y="290" as="sourcePoint" />
            <mxPoint x="947" y="290" as="targetPoint" />
          </mxGeometry>
        </mxCell>
        <mxCell id="eBvMdN80flQo1UROnTcl-11" value="" style="endArrow=none;html=1;rounded=0;edgeStyle=orthogonalEdgeStyle;entryX=1;entryY=0.5;entryDx=0;entryDy=0;exitX=0;exitY=0.5;exitDx=0;exitDy=0;endFill=0;" edge="1" parent="WIyWlLk6GJQsqaUBKTNV-1">
          <mxGeometry width="50" height="50" relative="1" as="geometry">
            <mxPoint x="354" y="529.57" as="sourcePoint" />
            <mxPoint x="474" y="529.57" as="targetPoint" />
          </mxGeometry>
        </mxCell>
        <mxCell id="eBvMdN80flQo1UROnTcl-12" value="" style="endArrow=none;html=1;rounded=0;edgeStyle=orthogonalEdgeStyle;entryX=1;entryY=0.5;entryDx=0;entryDy=0;exitX=0;exitY=0.5;exitDx=0;exitDy=0;endFill=0;" edge="1" parent="WIyWlLk6GJQsqaUBKTNV-1">
          <mxGeometry width="50" height="50" relative="1" as="geometry">
            <mxPoint x="695" y="899.5699999999999" as="sourcePoint" />
            <mxPoint x="815" y="899.5699999999999" as="targetPoint" />
          </mxGeometry>
        </mxCell>
        <mxCell id="eBvMdN80flQo1UROnTcl-13" value="" style="endArrow=none;html=1;rounded=0;edgeStyle=orthogonalEdgeStyle;entryX=1;entryY=0.5;entryDx=0;entryDy=0;exitX=0;exitY=0.5;exitDx=0;exitDy=0;endFill=0;" edge="1" parent="WIyWlLk6GJQsqaUBKTNV-1">
          <mxGeometry width="50" height="50" relative="1" as="geometry">
            <mxPoint x="935" y="955.5699999999999" as="sourcePoint" />
            <mxPoint x="1055" y="955.5699999999999" as="targetPoint" />
          </mxGeometry>
        </mxCell>
        <mxCell id="eBvMdN80flQo1UROnTcl-14" value="" style="endArrow=none;html=1;rounded=0;edgeStyle=orthogonalEdgeStyle;entryX=1;entryY=0.5;entryDx=0;entryDy=0;exitX=0;exitY=0.5;exitDx=0;exitDy=0;endFill=0;" edge="1" parent="WIyWlLk6GJQsqaUBKTNV-1">
          <mxGeometry width="50" height="50" relative="1" as="geometry">
            <mxPoint x="800" y="29.74000000000001" as="sourcePoint" />
            <mxPoint x="920" y="29.74000000000001" as="targetPoint" />
          </mxGeometry>
        </mxCell>
      </root>
    </mxGraphModel>
  </diagram>
</mxfile>
